<?xml version="1.0" standalone="no"?>
<!DOCTYPE svg PUBLIC "-//W3C//DTD SVG 20010904//EN"
 "http://www.w3.org/TR/2001/REC-SVG-20010904/DTD/svg10.dtd">
<svg version="1.0" xmlns="http://www.w3.org/2000/svg"
 width="96.000000pt" height="96.000000pt" viewBox="0 0 96.000000 96.000000"
 preserveAspectRatio="xMidYMid meet">

<g transform="translate(0.000000,96.000000) scale(0.100000,-0.100000)"
fill="#000000" stroke="none">
<path d="M361 944 c-253 -68 -410 -331 -346 -579 67 -256 329 -415 580 -350
256 67 415 329 350 578 -67 259 -333 419 -584 351z m283 -102 c91 -42 149
-100 194 -190 35 -72 37 -81 37 -172 0 -91 -2 -100 -37 -172 -45 -91 -103
-147 -196 -191 -61 -29 -76 -32 -162 -32 -86 0 -101 3 -162 32 -93 44 -151
100 -196 191 -35 72 -37 81 -37 171 0 87 3 102 32 163 40 85 97 147 172 186
78 42 122 52 213 48 61 -3 92 -11 142 -34z"/>
<path d="M193 696 c-25 -22 -28 -31 -28 -88 0 -78 25 -130 84 -175 77 -60 158
-35 195 58 l16 40 -52 61 c-104 120 -113 128 -151 128 -23 0 -46 -8 -64 -24z"/>
<path d="M637 686 c-18 -18 -56 -61 -86 -95 l-53 -62 18 -40 c41 -92 116 -114
193 -58 89 64 120 211 57 266 -41 35 -90 31 -129 -11z"/>
<path d="M427 422 c-20 -22 -22 -62 -4 -62 20 0 47 33 47 58 0 27 -21 28 -43
4z"/>
<path d="M490 417 c0 -25 28 -57 48 -57 19 0 14 45 -6 63 -26 24 -42 21 -42
-6z"/>
<path d="M166 382 c-9 -15 7 -92 19 -92 16 0 52 -41 57 -65 2 -12 12 -20 24
-21 25 -1 70 -30 78 -50 4 -11 15 -13 40 -8 23 4 45 1 65 -9 28 -14 34 -14 62
0 18 9 42 13 59 9 23 -4 35 1 60 24 17 16 43 30 58 32 18 2 28 10 30 23 5 25
41 65 59 65 7 0 13 11 13 24 0 13 3 31 6 40 4 9 0 18 -9 22 -17 6 -72 -40 -63
-54 9 -14 -24 -52 -45 -52 -11 0 -23 -10 -29 -24 -10 -27 -38 -40 -64 -30 -9
4 -18 0 -22 -9 -7 -20 -52 -31 -70 -16 -11 9 -17 9 -28 0 -17 -15 -63 -4 -70
16 -4 9 -13 12 -25 8 -27 -8 -51 4 -62 31 -5 14 -17 24 -28 24 -19 0 -44 31
-46 55 0 11 -49 65 -58 65 -3 0 -8 -4 -11 -8z"/>
</g>
</svg>
